<?xml version="1.0" encoding="UTF-8" standalone="no"?>
<svg xmlns="http://www.w3.org/2000/svg" height="233px" width="173px" version="1.1" xmlns:xlink="http://www.w3.org/1999/xlink" viewBox="0 0 173 233"><!-- Generator: Sketch 47.1 (45422) - http://www.bohemiancoding.com/sketch -->
 <title>certified-kubernetes-brand-logo</title>
 <desc>Created with Sketch.</desc>
 <g id="Page-1" fill-rule="evenodd" fill="none">
  <g id="certified-kubernetes-brand-logo" fill-rule="nonzero">
   <path id="Shape" fill="#fff" d="m70.972 196.57c-0.196-0.25-0.454-0.45-0.775-0.61-0.303-0.16-0.686-0.24-1.148-0.24-0.445 0-0.828 0.08-1.149 0.24-0.32 0.14-0.588 0.34-0.801 0.58-0.214 0.26-0.383 0.55-0.508 0.89-0.107 0.32-0.188 0.65-0.24 0.99h5.263c-0.018-0.34-0.08-0.67-0.187-0.99-0.089-0.33-0.241-0.61-0.455-0.86"/>
   <path id="Shape" fill="#fff" d="m52.977 195.88c-0.41 0-0.819 0.05-1.229 0.16-0.392 0.1-0.713 0.24-0.962 0.4v7.24c0.196 0.03 0.445 0.07 0.748 0.1 0.303 0.02 0.633 0.03 0.989 0.03 1.086 0 1.906-0.38 2.458-1.13 0.552-0.74 0.828-1.73 0.828-2.96-0.001-2.56-0.945-3.84-2.832-3.84"/>
   <path id="Shape" fill="#fff" d="m113.61 196.57c-0.2-0.25-0.46-0.45-0.78-0.61-0.3-0.16-0.68-0.24-1.15-0.24-0.44 0-0.82 0.08-1.14 0.24-0.32 0.14-0.59 0.34-0.8 0.58-0.22 0.26-0.39 0.55-0.51 0.89-0.11 0.32-0.19 0.65-0.24 0.99h5.26c-0.02-0.34-0.08-0.67-0.19-0.99-0.09-0.33-0.24-0.61-0.45-0.86"/>
   <path id="Shape" fill="#fff" d="m140.54 196.57c-0.2-0.25-0.46-0.45-0.78-0.61-0.3-0.16-0.68-0.24-1.15-0.24-0.44 0-0.82 0.08-1.14 0.24-0.32 0.14-0.59 0.34-0.81 0.58-0.21 0.26-0.38 0.55-0.5 0.89-0.11 0.32-0.19 0.65-0.24 0.99h5.26c-0.02-0.34-0.08-0.67-0.19-0.99-0.09-0.33-0.24-0.61-0.45-0.86"/>
   <path id="Shape" fill="#fff" d="m156.51 206.16c-1.03 0.71-2.5 1.07-4.4 1.07-1.25 0-2.29-0.11-3.13-0.32-0.82-0.21-1.39-0.39-1.71-0.53l0.67-3.24c0.68 0.27 1.37 0.48 2.08 0.65 0.72 0.14 1.42 0.21 2.11 0.21 0.73 0 1.25-0.07 1.55-0.21 0.31-0.15 0.46-0.42 0.46-0.83 0-0.32-0.2-0.6-0.59-0.83-0.39-0.25-0.99-0.53-1.79-0.83-0.62-0.23-1.19-0.47-1.71-0.72-0.5-0.25-0.93-0.54-1.28-0.88-0.36-0.36-0.64-0.78-0.83-1.26-0.2-0.48-0.3-1.06-0.3-1.74 0-1.31 0.49-2.35 1.47-3.12s2.33-1.15 4.04-1.15c0.85 0 1.67 0.08 2.46 0.24 0.78 0.15 1.4 0.3 1.87 0.48l-0.7 3.1c-0.46-0.16-0.97-0.3-1.52-0.43-0.53-0.12-1.14-0.18-1.82-0.18-1.24 0-1.87 0.34-1.87 1.04 0 0.16 0.03 0.3 0.08 0.43 0.06 0.12 0.17 0.24 0.32 0.37 0.16 0.1 0.38 0.23 0.65 0.37 0.28 0.13 0.64 0.27 1.06 0.43 0.88 0.32 1.6 0.64 2.17 0.96 0.57 0.31 1.01 0.65 1.33 1.02 0.34 0.36 0.57 0.76 0.7 1.2 0.14 0.45 0.21 0.96 0.21 1.55 0 1.39-0.53 2.44-1.58 3.15zm-11.51-5.74c-0.02 0.26-0.04 0.51-0.06 0.72h-9.03c0.09 0.82 0.48 1.47 1.15 1.95 0.68 0.48 1.59 0.72 2.73 0.72 0.73 0 1.44-0.06 2.14-0.19 0.71-0.14 1.29-0.31 1.73-0.5l0.54 3.23c-0.22 0.11-0.5 0.21-0.86 0.32-0.35 0.11-0.75 0.19-1.2 0.27-0.43 0.09-0.89 0.16-1.39 0.21s-1 0.08-1.49 0.08c-1.27 0-2.37-0.19-3.32-0.56-0.92-0.37-1.7-0.88-2.32-1.52-0.61-0.66-1.06-1.44-1.36-2.33-0.29-0.89-0.43-1.85-0.43-2.88 0-1.25 0.19-2.34 0.56-3.26 0.39-0.95 0.9-1.73 1.52-2.36 0.63-0.62 1.34-1.09 2.14-1.41 0.82-0.32 1.66-0.48 2.51-0.48 2 0 3.57 0.61 4.73 1.84 1.16 1.21 1.74 3 1.74 5.37-0.01 0.23-0.01 0.49-0.03 0.78zm-16.24 6.54c-0.59 0.15-1.31 0.22-2.17 0.22-1.08 0-1.98-0.14-2.69-0.43-0.72-0.3-1.29-0.71-1.71-1.23-0.43-0.53-0.73-1.18-0.91-1.92-0.16-0.75-0.24-1.58-0.24-2.49v-11.81l3.98-0.64v4.14h4.78v3.31h-4.78v4.95c0 0.84 0.14 1.5 0.43 2 0.3 0.5 0.89 0.75 1.79 0.75 0.42 0 0.86-0.04 1.31-0.11 0.46-0.09 0.88-0.2 1.25-0.34l0.56 3.1c-0.48 0.19-1.01 0.36-1.6 0.5zm-10.69-6.54c-0.02 0.26-0.03 0.51-0.05 0.72h-9.03c0.09 0.82 0.47 1.47 1.14 1.95 0.68 0.48 1.59 0.72 2.73 0.72 0.73 0 1.44-0.06 2.14-0.19 0.71-0.14 1.29-0.31 1.73-0.5l0.54 3.23c-0.22 0.11-0.5 0.21-0.86 0.32-0.35 0.11-0.75 0.19-1.2 0.27-0.43 0.09-0.89 0.16-1.39 0.21s-1 0.08-1.49 0.08c-1.27 0-2.37-0.19-3.32-0.56-0.92-0.37-1.7-0.88-2.32-1.52-0.61-0.66-1.06-1.44-1.36-2.33-0.29-0.89-0.43-1.85-0.43-2.88 0-1.25 0.19-2.34 0.56-3.26 0.39-0.95 0.9-1.73 1.52-2.36 0.63-0.62 1.34-1.09 2.14-1.41 0.82-0.32 1.66-0.48 2.51-0.48 2 0 3.57 0.61 4.73 1.84 1.16 1.21 1.74 3 1.74 5.37 0 0.23-0.01 0.49-0.03 0.78zm-16.13 6.44h-3.984v-7.46c0-1.28-0.169-2.19-0.508-2.72-0.338-0.54-0.971-0.81-1.896-0.81-0.284 0-0.588 0.02-0.907 0.06-0.322 0.02-0.606 0.04-0.855 0.08v10.85h-3.979v-13.58c0.676-0.19 1.549-0.37 2.617-0.53 1.068-0.18 2.19-0.27 3.367-0.27 1.192 0 2.182 0.16 2.966 0.48 0.802 0.3 1.429 0.74 1.899 1.31 0.46 0.57 0.79 1.25 0.98 2.03 0.2 0.79 0.3 1.66 0.3 2.62v7.94zm-14.936-10.53c-0.356-0.09-0.775-0.18-1.257-0.27-0.479-0.1-0.997-0.16-1.549-0.16-0.25 0-0.552 0.03-0.909 0.08-0.338 0.04-0.596 0.08-0.773 0.14v10.74h-3.982v-13.31c0.713-0.25 1.55-0.48 2.513-0.69 0.979-0.24 2.065-0.35 3.26-0.35 0.213 0 0.472 0.02 0.774 0.05 0.303 0.02 0.605 0.06 0.908 0.11 0.303 0.03 0.606 0.09 0.908 0.16 0.303 0.05 0.562 0.12 0.775 0.21l-0.668 3.29zm-11.57 4.09c-0.019 0.26-0.035 0.51-0.053 0.72h-9.031c0.089 0.82 0.472 1.47 1.148 1.95s1.585 0.72 2.726 0.72c0.729 0 1.442-0.06 2.138-0.19 0.712-0.14 1.291-0.31 1.736-0.5l0.535 3.23c-0.214 0.11-0.499 0.21-0.855 0.32s-0.757 0.19-1.203 0.27c-0.427 0.09-0.89 0.16-1.389 0.21s-0.998 0.08-1.496 0.08c-1.265 0-2.37-0.19-3.314-0.56-0.926-0.37-1.7-0.88-2.323-1.52-0.606-0.66-1.061-1.44-1.363-2.33-0.285-0.89-0.428-1.85-0.428-2.88 0-1.25 0.188-2.34 0.562-3.26 0.393-0.95 0.899-1.73 1.523-2.36 0.623-0.62 1.336-1.09 2.137-1.41 0.82-0.32 1.657-0.48 2.512-0.48 1.995 0 3.571 0.61 4.729 1.84 1.158 1.21 1.737 3 1.737 5.37 0 0.23-0.01 0.49-0.028 0.78zm-16.072 2.46c-0.32 0.9-0.793 1.68-1.416 2.32s-1.389 1.14-2.298 1.5c-0.908 0.34-1.941 0.5-3.1 0.5-0.48 0-0.988-0.02-1.522-0.08-0.518-0.03-1.033-0.08-1.55-0.16-0.499-0.07-0.98-0.15-1.443-0.24-0.463-0.1-0.873-0.21-1.229-0.32v-19.64l3.98-0.64v7c0.446-0.19 0.909-0.34 1.39-0.45s0.997-0.16 1.55-0.16c0.998 0 1.88 0.18 2.646 0.53 0.767 0.34 1.407 0.83 1.923 1.47 0.518 0.65 0.909 1.42 1.177 2.33 0.267 0.89 0.4 1.89 0.4 2.99 0 1.12-0.169 2.14-0.508 3.05zm-16.321 3.5c-0.677 0.19-1.55 0.37-2.619 0.53-1.067 0.18-2.19 0.27-3.365 0.27-1.194 0-2.191-0.16-2.993-0.48-0.784-0.32-1.407-0.77-1.87-1.34-0.463-0.59-0.793-1.28-0.989-2.08s-0.294-1.69-0.294-2.65v-7.83h3.981v7.35c0 1.28 0.17 2.21 0.508 2.78 0.339 0.57 0.971 0.85 1.896 0.85 0.285 0 0.588 0 0.909-0.02 0.32-0.04 0.605-0.07 0.855-0.11v-10.85h3.98v13.58h0.001zm-18.419 0.48c-0.285-0.47-0.615-0.97-0.989-1.52-0.355-0.57-0.738-1.14-1.148-1.69-0.41-0.57-0.846-1.11-1.31-1.63-0.445-0.52-0.891-0.95-1.336-1.31v6.15h-3.98v-20.1l3.98-0.64v11.76c0.393-0.43 0.793-0.87 1.202-1.34 0.429-0.46 0.837-0.92 1.229-1.36 0.392-0.46 0.757-0.9 1.096-1.31 0.356-0.41 0.659-0.77 0.908-1.07h4.729c-0.943 1.09-1.871 2.13-2.778 3.13-0.892 0.98-1.871 1.99-2.939 3.04 0.534 0.48 1.086 1.07 1.656 1.74 0.57 0.66 1.122 1.35 1.657 2.06 0.534 0.71 1.023 1.43 1.469 2.14s0.82 1.36 1.123 1.95h-4.569zm34.563-30.81l-27.306-33.95c-0.151-0.19-0.295-0.39-0.428-0.6-1.109-1.69-1.479-3.76-1.025-5.73l9.733-42.343c0.511-2.22 2.013-4.088 4.081-5.076l39.45-18.849c0.905-0.434 1.888-0.682 2.891-0.732 1.263-0.063 2.52 0.188 3.658 0.732l39.451 18.839c2.07 0.988 3.57 2.855 4.09 5.076l9.74 42.343c0.51 2.22-0.02 4.55-1.46 6.33l-27.29 33.95c-1.43 1.78-3.61 2.82-5.9 2.81l-43.787 0.01c-2.296 0-4.467-1.03-5.898-2.81zm-53.772 52.21h162.48v-182.75l-162.48 0.002 0.003 182.75z"/>
   <path id="Shape" fill="#336BE6" d="m133.88 30.228c0.36 0 0.68-0.013 0.98-0.039s0.54-0.057 0.74-0.093v-7.128c-0.25-0.158-0.57-0.289-0.96-0.396-0.4-0.104-0.8-0.156-1.2-0.156-1.86 0-2.79 1.262-2.79 3.787 0 1.211 0.27 2.184 0.81 2.92 0.55 0.737 1.35 1.105 2.42 1.105"/>
   <path id="Shape" fill="#336BE6" d="m55.958 23.941c-0.097-0.315-0.246-0.596-0.446-0.842-0.202-0.245-0.456-0.447-0.764-0.604-0.307-0.158-0.688-0.236-1.144-0.236-0.439 0-0.816 0.074-1.131 0.223-0.316 0.149-0.579 0.347-0.789 0.592-0.211 0.246-0.373 0.53-0.487 0.855-0.114 0.324-0.197 0.653-0.25 0.986h5.182c-0.018-0.334-0.075-0.658-0.171-0.974"/>
   <path id="Shape" fill="#336BE6" d="m120.32 23.941c-0.09-0.315-0.24-0.596-0.44-0.842-0.2-0.245-0.46-0.447-0.77-0.604-0.3-0.158-0.68-0.236-1.14-0.236-0.44 0-0.82 0.074-1.13 0.223-0.32 0.149-0.58 0.347-0.79 0.592-0.21 0.246-0.37 0.53-0.49 0.855-0.11 0.324-0.2 0.653-0.25 0.986h5.19c-0.02-0.334-0.08-0.658-0.18-0.974"/>
   <path id="Shape" fill="#fff" d="m36.125 31.49c0.587 0.649 1.337 1.162 2.249 1.539s1.999 0.565 3.263 0.565c0.823 0 1.577-0.07 2.262-0.21 0.684-0.141 1.254-0.307 1.71-0.5l-0.553-3.209c-0.456 0.193-0.956 0.333-1.499 0.421-0.544 0.088-1.053 0.131-1.526 0.131-1.333 0-2.266-0.342-2.801-1.024-0.535-0.685-0.803-1.649-0.803-2.895 0-1.175 0.284-2.122 0.855-2.841 0.569-0.719 1.433-1.078 2.59-1.078 0.544 0 1.035 0.052 1.475 0.158 0.438 0.104 0.841 0.228 1.21 0.368l0.814-3.131c-0.579-0.245-1.175-0.434-1.789-0.565s-1.289-0.197-2.024-0.197c-1.123 0-2.122 0.193-2.999 0.579-0.877 0.385-1.622 0.907-2.236 1.564s-1.083 1.43-1.407 2.314c-0.325 0.887-0.486 1.829-0.486 2.828 0 1.035 0.136 1.995 0.407 2.88 0.27 0.887 0.699 1.654 1.288 2.303"/>
   <path id="Shape" fill="#fff" d="m51.197 23.928c0.114-0.324 0.276-0.609 0.486-0.855 0.211-0.244 0.474-0.442 0.79-0.592 0.314-0.148 0.691-0.223 1.131-0.223 0.456 0 0.837 0.079 1.144 0.236 0.308 0.157 0.562 0.359 0.764 0.605 0.2 0.245 0.35 0.526 0.446 0.841 0.097 0.316 0.153 0.642 0.171 0.975h-5.182c0.053-0.333 0.136-0.662 0.25-0.987m-2.499 7.602c0.605 0.641 1.368 1.145 2.288 1.513 0.921 0.369 2.004 0.553 3.249 0.553 0.491 0 0.981-0.026 1.473-0.079s0.951-0.118 1.381-0.197c0.431-0.079 0.82-0.171 1.171-0.276s0.632-0.21 0.842-0.315l-0.526-3.183c-0.438 0.192-1.004 0.354-1.696 0.486s-1.398 0.197-2.118 0.197c-1.121 0-2.017-0.236-2.683-0.71-0.667-0.474-1.043-1.114-1.131-1.921h8.891c0.018-0.21 0.035-0.451 0.054-0.723 0.017-0.272 0.025-0.521 0.025-0.75 0-2.332-0.569-4.1-1.71-5.301-1.14-1.2-2.691-1.802-4.656-1.802-0.842 0-1.661 0.158-2.459 0.475-0.799 0.314-1.504 0.779-2.117 1.394-0.614 0.614-1.109 1.381-1.486 2.301-0.377 0.921-0.566 1.996-0.566 3.224 0 1.017 0.146 1.964 0.435 2.841 0.287 0.875 0.734 1.633 1.339 2.273"/>
   <path id="Shape" fill="#fff" d="m66.861 22.652c0.175-0.053 0.435-0.101 0.776-0.145 0.342-0.043 0.635-0.066 0.881-0.066 0.544 0 1.052 0.049 1.526 0.146 0.473 0.097 0.885 0.188 1.235 0.275l0.658-3.234c-0.211-0.088-0.465-0.162-0.763-0.225-0.298-0.061-0.597-0.113-0.895-0.156-0.299-0.044-0.597-0.079-0.895-0.106-0.298-0.026-0.552-0.039-0.764-0.039-1.175 0-2.239 0.11-3.195 0.329s-1.784 0.451-2.485 0.697v13.099h3.919v-10.575h0.002z"/>
   <path id="Shape" fill="#fff" d="m75.042 31.898c0.422 0.518 0.982 0.921 1.684 1.21s1.587 0.435 2.657 0.435c0.842 0 1.552-0.07 2.131-0.21 0.579-0.142 1.104-0.308 1.578-0.5l-0.553-3.053c-0.367 0.142-0.775 0.25-1.223 0.329s-0.882 0.119-1.303 0.119c-0.877 0-1.459-0.246-1.749-0.736-0.289-0.491-0.435-1.148-0.435-1.974v-4.866h4.71v-3.262h-4.71v-4.077l-3.919 0.631v11.627c0 0.895 0.083 1.71 0.25 2.446 0.167 0.737 0.461 1.364 0.882 1.881"/>
   <rect id="Rectangle-path" height="13.836" width="3.919" y="19.391" x="85.721" fill="#fff"/>
   <path id="Shape" fill="#fff" d="m87.669 17.707c0.631 0 1.179-0.206 1.644-0.618 0.464-0.412 0.697-0.978 0.697-1.697s-0.233-1.284-0.697-1.696c-0.465-0.411-1.013-0.618-1.644-0.618-0.632 0-1.181 0.207-1.646 0.618-0.465 0.412-0.697 0.978-0.697 1.696 0 0.72 0.232 1.285 0.697 1.697s1.014 0.618 1.646 0.618"/>
   <path id="Shape" fill="#fff" d="m106.29 17.707c0.63 0 1.18-0.206 1.65-0.618 0.46-0.412 0.69-0.978 0.69-1.697s-0.23-1.284-0.69-1.696c-0.47-0.411-1.02-0.618-1.65-0.618s-1.18 0.207-1.64 0.618c-0.47 0.412-0.7 0.978-0.7 1.696 0 0.72 0.23 1.285 0.7 1.697 0.46 0.412 1.01 0.618 1.64 0.618"/>
   <rect id="Rectangle-path" height="13.836" width="3.92" y="19.391" x="104.34" fill="#fff"/>
   <path id="Shape" fill="#fff" d="m97.242 22.652h4.838v-3.262h-4.838v-0.684c0-0.368 0.04-0.71 0.118-1.026 0.079-0.315 0.211-0.587 0.396-0.815s0.438-0.407 0.763-0.538c0.324-0.133 0.724-0.198 1.197-0.198 0.354 0 0.694 0.026 1.044 0.079 0.34 0.053 0.65 0.141 0.93 0.263l0.68-3.077c-0.33-0.14-0.74-0.271-1.22-0.395-0.48-0.122-1.09-0.185-1.828-0.185-1.981 0-3.477 0.526-4.484 1.578-1.009 1.052-1.513 2.473-1.513 4.262v14.572h3.919l-0.002-10.574z"/>
   <path id="Shape" fill="#fff" d="m115.56 23.928c0.12-0.324 0.28-0.609 0.49-0.855 0.21-0.244 0.47-0.442 0.79-0.592 0.31-0.148 0.69-0.223 1.13-0.223 0.45 0 0.84 0.079 1.14 0.236 0.31 0.157 0.57 0.359 0.77 0.605 0.2 0.245 0.35 0.526 0.44 0.841 0.1 0.316 0.16 0.642 0.18 0.975h-5.19c0.05-0.333 0.14-0.662 0.25-0.987m-2.5 7.602c0.61 0.641 1.37 1.145 2.29 1.513 0.92 0.369 2.01 0.553 3.25 0.553 0.49 0 0.98-0.026 1.47-0.079s0.95-0.118 1.39-0.197c0.43-0.079 0.82-0.171 1.17-0.276s0.63-0.21 0.84-0.315l-0.53-3.183c-0.44 0.192-1 0.354-1.69 0.486s-1.4 0.197-2.12 0.197c-1.12 0-2.02-0.236-2.69-0.71-0.66-0.474-1.04-1.114-1.13-1.921h8.9c0.01-0.21 0.03-0.451 0.05-0.723s0.02-0.521 0.02-0.75c0-2.332-0.56-4.1-1.7-5.301-1.15-1.2-2.7-1.802-4.66-1.802-0.84 0-1.66 0.158-2.46 0.475-0.8 0.314-1.5 0.779-2.12 1.394-0.61 0.615-1.11 1.381-1.48 2.301-0.38 0.921-0.57 1.996-0.57 3.224 0 1.017 0.15 1.964 0.44 2.841 0.28 0.875 0.73 1.633 1.33 2.273"/>
   <path id="Shape" fill="#fff" d="m133.44 22.415c0.4 0 0.8 0.053 1.19 0.157 0.4 0.106 0.72 0.237 0.96 0.396v7.128c-0.19 0.036-0.43 0.066-0.73 0.092-0.3 0.027-0.62 0.04-0.98 0.04-1.06 0-1.87-0.369-2.42-1.104-0.54-0.737-0.81-1.71-0.81-2.92 0-2.526 0.93-3.789 2.79-3.789m-4.9 9.22c0.62 0.623 1.37 1.101 2.27 1.434 0.89 0.333 1.91 0.499 3.05 0.499 0.47 0 0.97-0.021 1.48-0.064 0.52-0.044 1.03-0.102 1.53-0.171 0.5-0.071 0.98-0.154 1.43-0.25 0.46-0.097 0.86-0.198 1.21-0.304v-19.965l-3.91 0.632v6.261c-0.44-0.193-0.88-0.343-1.31-0.447-0.43-0.105-0.91-0.158-1.46-0.158-0.98 0-1.85 0.167-2.61 0.5-0.77 0.333-1.41 0.815-1.94 1.446-0.52 0.632-0.93 1.398-1.21 2.302-0.28 0.903-0.42 1.916-0.42 3.038 0 1.105 0.16 2.101 0.49 2.986 0.32 0.885 0.79 1.639 1.4 2.261"/>
   <path id="Shape" fill="#336BE6" d="m101.02 145.88c0.02-0.01 0.04-0.03 0.06-0.04-0.02 0.01-0.04 0.03-0.06 0.04"/>
   <path id="Shape" fill="#336BE6" d="m104.17 143.27c-0.01 0.01-0.01 0.01-0.02 0.01 0.01 0 0.01 0 0.02-0.01"/>
   <path id="Shape" fill="#336BE6" d="m102.65 144.64c0.01-0.01 0.02-0.01 0.02-0.02 0 0.01-0.01 0.01-0.02 0.02"/>
   <path id="Shape" fill="#336BE6" d="m106.16 141.03c1.66-2.1 2.96-4.44 3.86-6.95l-12.264-2.08-0.021 0.03h-0.012c-0.171-0.03-0.329-0.05-0.476-0.04-0.27 0.02-0.535 0.09-0.788 0.21-0.999 0.48-1.438 1.65-1 2.67l0.005 0.01-0.016 0.02 4.762 11.5c2.27-1.45 4.27-3.26 5.95-5.37"/>
   <path id="Shape" fill="#336BE6" d="m73.784 146.35l4.709-11.38-0.036-0.04 0.006-0.01c0.173-0.41 0.213-0.85 0.114-1.28-0.213-0.93-1.025-1.58-1.979-1.6h-0.025c-0.125 0-0.252 0.01-0.38 0.04h-0.011l-0.021-0.03-12.154 2.07c0.923 2.54 2.25 4.89 3.944 7 1.651 2.04 3.613 3.8 5.833 5.23"/>
   <path id="Shape" fill="#336BE6" d="m69.814 108.31l10.126 7.17h0.021 0.01c0.353 0.26 0.772 0.4 1.214 0.4 1.106 0 2.012-0.87 2.059-1.98v-0.01l0.052-0.02 0.698-12.35c-0.855 0.1-1.692 0.25-2.491 0.43-4.434 1-8.475 3.2-11.689 6.36"/>
   <path id="Shape" fill="#336BE6" d="m97.586 103.77c-2.413-1.17-4.979-1.93-7.631-2.25l0.699 12.33h0.01l0.001 0.01c0.02 0.44 0.174 0.85 0.449 1.2 0.69 0.86 1.934 1.03 2.828 0.38l0.009-0.01 0.036 0.02 10.063-7.14c-1.9-1.85-4.073-3.38-6.464-4.54"/>
   <path id="Shape" fill="#336BE6" d="m97.921 122.33c-0.248 1.08 0.396 2.15 1.463 2.45h0.013l0.01 0.05 11.913 3.43c0.26-2.63 0.08-5.28-0.52-7.88-0.6-2.64-1.62-5.13-3.02-7.41l-9.2 8.23 0.004 0.03-0.008 0.01c-0.332 0.28-0.558 0.66-0.655 1.09"/>
   <path id="Shape" fill="#336BE6" d="m92.451 149.63c0.814-0.19 1.613-0.41 2.376-0.67l-5.989-10.82h-0.048l-0.005-0.01c-0.205-0.39-0.523-0.69-0.924-0.88-0.285-0.14-0.584-0.21-0.889-0.21h-0.076c-0.73 0.03-1.398 0.45-1.743 1.09l-0.006 0.01h-0.011l-5.977 10.81c4.268 1.45 8.864 1.68 13.292 0.68"/>
   <path id="Shape" fill="#336BE6" d="m105.51 141.84c0.02-0.02 0.03-0.03 0.04-0.05-0.01 0.02-0.02 0.03-0.04 0.05"/>
   <path id="Shape" fill="#336BE6" d="m66.104 112.97c-1.381 2.25-2.38 4.7-2.969 7.27-0.605 2.64-0.764 5.36-0.47 8.06l11.853-3.42 0.01-0.04h0.012c0.426-0.12 0.795-0.36 1.069-0.7 0.69-0.87 0.576-2.12-0.26-2.84l-0.009-0.01 0.01-0.05-9.246-8.27z"/>
   <polygon id="Shape" points="85.079 121.89 82.725 124.82 83.568 128.49 86.972 130.12 90.365 128.49 91.208 124.83 88.859 121.89" fill="#336BE6"/>
   <path id="Shape" fill="#336BE6" d="m70.965 153.19l-0.003-0.01 0.003-0.01 0.422-1.01c-6.476-3.85-11.307-9.88-13.605-16.99l-1.019 0.17h-0.008c-0.03-0.02-0.065-0.04-0.104-0.06-0.292-0.17-0.779-0.45-1.241-0.42-1.238 0.18-2.536 0.65-4.04 1.19l-0.072 0.02c-0.243 0.09-0.474 0.19-0.696 0.29-0.456 0.2-0.887 0.38-1.425 0.52-0.119 0.04-0.275 0.07-0.426 0.1-0.063 0.02-0.127 0.03-0.185 0.04-0.006 0-0.013 0.01-0.02 0.01-0.009 0-0.017 0-0.025 0.01h-0.021-0.016c-1.406 0.3-2.783-0.48-3.071-1.74s0.615-2.56 2.013-2.9h0.018c0.006 0 0.013-0.01 0.018-0.01h0.01 0.012c0.058-0.02 0.121-0.03 0.186-0.05 0.156-0.04 0.317-0.08 0.445-0.1 0.54-0.1 1.004-0.12 1.495-0.14 0.249-0.01 0.506-0.02 0.771-0.04l0.058-0.01c1.595-0.17 2.973-0.31 4.172-0.69 0.333-0.14 0.653-0.56 0.909-0.89 0.032-0.05 0.064-0.09 0.095-0.13h0.004 0.007l0.973-0.28c-1.07-7.44 0.64-15 4.813-21.29l-0.749-0.67-0.002-0.01c-0.005-0.03-0.01-0.06-0.016-0.1-0.051-0.34-0.134-0.91-0.453-1.25-0.927-0.87-2.122-1.6-3.507-2.46-0.229-0.14-0.455-0.26-0.675-0.37-0.433-0.23-0.842-0.45-1.284-0.78-0.104-0.07-0.23-0.18-0.354-0.28-0.047-0.04-0.093-0.07-0.137-0.11-0.005 0-0.01-0.01-0.016-0.01-0.007-0.01-0.014-0.01-0.02-0.02-0.552-0.44-0.917-1.04-1.027-1.71-0.11-0.66 0.047-1.299 0.443-1.795 0.429-0.538 1.085-0.843 1.81-0.843 0.029 0 0.06 0.001 0.09 0.001 0.588 0.021 1.177 0.243 1.656 0.626 0.043 0.035 0.093 0.072 0.143 0.111 0.13 0.102 0.277 0.218 0.383 0.308 0.42 0.361 0.726 0.712 1.049 1.082 0.16 0.19 0.326 0.38 0.506 0.57l0.041 0.04c1.125 1.14 2.098 2.13 3.14 2.83 0.475 0.28 0.854 0.22 1.221 0.16 0.056-0.01 0.112-0.02 0.168-0.03h0.008l0.008 0.01c0.14 0.1 0.582 0.42 0.838 0.59 4.167-4.41 9.501-7.458 15.426-8.803 1.388-0.314 2.818-0.536 4.254-0.655l0.056-0.989 0.005-0.005c0.291-0.282 0.659-0.721 0.761-1.211 0.102-1.255-0.064-2.637-0.257-4.236l-0.006-0.041c-0.037-0.26-0.083-0.509-0.127-0.749-0.09-0.485-0.175-0.944-0.195-1.497-0.004-0.116-0.001-0.262 0.002-0.404 0.001-0.068 0.003-0.138 0.004-0.203-0.001-0.009-0.002-0.019-0.003-0.027-0.002-0.013-0.003-0.024-0.003-0.037 0-1.458 1.067-2.645 2.381-2.645s2.383 1.187 2.383 2.645c0 0.07 0.002 0.147 0.002 0.229 0.004 0.156 0.008 0.317 0.002 0.443-0.021 0.554-0.104 1.012-0.194 1.497-0.045 0.241-0.091 0.489-0.128 0.75l-0.016 0.126c-0.188 1.565-0.352 2.918-0.252 4.153 0.08 0.54 0.364 0.798 0.637 1.048 0.045 0.04 0.088 0.079 0.13 0.119l0.007 0.006v0.008c0.007 0.178 0.033 0.73 0.054 1.037 3.713 0.332 7.309 1.332 10.681 2.972 3.35 1.623 6.34 3.809 8.9 6.489l0.89-0.63h0.01c0.04 0 0.08 0 0.12 0.01 0.34 0.02 0.9 0.06 1.3-0.17 1.03-0.69 1.99-1.66 3.1-2.79l0.08-0.08c0.18-0.19 0.34-0.38 0.5-0.56 0.33-0.38 0.64-0.731 1.06-1.097 0.11-0.089 0.25-0.197 0.38-0.304 0.06-0.04 0.11-0.079 0.15-0.115 1.14-0.907 2.73-0.812 3.55 0.215 0.82 1.021 0.56 2.601-0.58 3.511-0.06 0.04-0.11 0.09-0.17 0.13-0.12 0.11-0.25 0.21-0.35 0.29-0.44 0.33-0.86 0.54-1.29 0.77-0.22 0.12-0.45 0.24-0.68 0.38-1.39 0.85-2.58 1.59-3.51 2.46-0.37 0.4-0.4 0.78-0.42 1.15-0.01 0.06-0.01 0.12-0.02 0.17v0.01 0.01c-0.07 0.06-0.2 0.18-0.36 0.32s-0.34 0.3-0.47 0.42c2.09 3.11 3.58 6.55 4.42 10.22 0.84 3.63 1 7.34 0.5 11.01l0.94 0.27 0.01 0.01c0.02 0.03 0.04 0.06 0.06 0.1 0.19 0.28 0.51 0.75 0.94 0.92 1.2 0.38 2.58 0.52 4.18 0.69h0.05c0.27 0.02 0.52 0.03 0.77 0.04 0.5 0.02 0.96 0.04 1.5 0.15 0.12 0.02 0.28 0.06 0.43 0.1 0.09 0.02 0.18 0.04 0.26 0.06 1.39 0.34 2.3 1.64 2.01 2.9s-1.67 2.04-3.07 1.74c0 0-0.01 0-0.02-0.01h-0.02c-0.01 0-0.01 0-0.02-0.01h-0.02c-0.07-0.02-0.15-0.03-0.23-0.05-0.14-0.03-0.27-0.06-0.38-0.09-0.54-0.14-0.96-0.32-1.41-0.52-0.23-0.1-0.47-0.2-0.71-0.29l-0.07-0.02c-1.51-0.54-2.81-1.01-4.05-1.19-0.04-0.01-0.09-0.01-0.13-0.01-0.47 0-0.75 0.2-1.03 0.4-0.05 0.03-0.1 0.06-0.15 0.1h-0.01c-0.17-0.04-0.69-0.13-0.99-0.18-1.14 3.56-2.89 6.85-5.21 9.78-2.34 2.96-5.16 5.42-8.39 7.33 0.03 0.09 0.07 0.2 0.12 0.31 0.09 0.26 0.2 0.56 0.26 0.62l0.01 0.01v0.02c-0.03 0.05-0.05 0.11-0.07 0.16-0.14 0.34-0.28 0.69-0.11 1.22 0.45 1.18 1.21 2.37 2.09 3.74 0.15 0.22 0.3 0.43 0.44 0.63 0.29 0.39 0.57 0.77 0.82 1.25 0.07 0.12 0.14 0.28 0.21 0.44 0.04 0.07 0.07 0.14 0.1 0.2 0.61 1.3 0.16 2.82-1.01 3.38-0.57 0.28-1.23 0.29-1.85 0.04-0.63-0.26-1.14-0.75-1.44-1.39-0.03-0.05-0.06-0.11-0.09-0.16-0.07-0.16-0.15-0.32-0.2-0.44-0.23-0.51-0.35-0.96-0.48-1.44-0.07-0.24-0.13-0.48-0.21-0.73l-0.02-0.05c-0.52-1.52-0.97-2.83-1.603-3.92-0.307-0.45-0.675-0.56-1.029-0.67-0.056-0.01-0.11-0.03-0.164-0.05h-0.008l-0.004-0.01c-0.039-0.07-0.135-0.24-0.236-0.43-0.092-0.16-0.188-0.34-0.26-0.46-1.318 0.5-2.678 0.9-4.037 1.21-5.924 1.35-12.056 0.91-17.735-1.27l-0.529 0.96h-0.01c-0.378 0.11-0.77 0.21-1.007 0.5-0.602 0.71-0.951 1.74-1.319 2.83-0.157 0.46-0.319 0.93-0.506 1.4-0.079 0.25-0.146 0.5-0.211 0.74-0.128 0.47-0.249 0.92-0.47 1.43-0.051 0.11-0.124 0.26-0.195 0.4-0.033 0.07-0.065 0.13-0.095 0.19l-0.002 0.01c-0.003 0-0.006 0.01-0.008 0.01-0.471 0.97-1.407 1.55-2.341 1.55-0.321 0-0.643-0.07-0.943-0.21-1.168-0.57-1.623-2.08-1.014-3.39 0.032-0.06 0.069-0.14 0.107-0.22 0.067-0.15 0.137-0.3 0.195-0.41 0.259-0.49 0.535-0.87 0.827-1.27 0.145-0.19 0.295-0.4 0.44-0.62 0.937-1.46 1.688-2.68 2.136-3.84 0.111-0.39-0.069-0.94-0.214-1.31zm37.905 25.66c2.29 0.01 4.47-1.03 5.9-2.81l27.29-33.95c1.44-1.78 1.97-4.11 1.46-6.33l-9.74-42.343c-0.52-2.221-2.02-4.088-4.09-5.076l-39.452-18.839c-1.139-0.544-2.396-0.795-3.657-0.732-1.003 0.051-1.985 0.3-2.891 0.732l-39.45 18.849c-2.068 0.988-3.57 2.856-4.081 5.076l-9.732 42.343c-0.454 1.97-0.085 4.04 1.024 5.73 0.133 0.21 0.276 0.4 0.428 0.6l27.307 33.95c1.431 1.78 3.602 2.81 5.898 2.81l43.786-0.01z"/>
   <path id="Shape" fill="#fff" d="m104.17 143.27c-0.01 0.01-0.01 0.01-0.02 0.01 0.01 0 0.01 0 0.02-0.01zm-3.09 2.57c-0.02 0.01-0.04 0.03-0.06 0.04 0.02-0.01 0.04-0.03 0.06-0.04zm1.59-1.22c0 0.01-0.01 0.01-0.02 0.02 0.01-0.01 0.02-0.01 0.02-0.02zm-4.092-23.42l9.192-8.23c1.41 2.28 2.43 4.77 3.03 7.41 0.6 2.6 0.77 5.26 0.52 7.88l-11.914-3.43-0.012-0.05h-0.011c-1.067-0.3-1.711-1.37-1.464-2.45 0.097-0.43 0.321-0.81 0.653-1.09l0.008-0.01-0.002-0.03zm6.972 20.59c-0.01 0.01-0.02 0.03-0.04 0.05 0.02-0.02 0.03-0.04 0.04-0.05zm-10.099-6.89l0.016-0.02-0.005-0.01c-0.438-1.02 0.001-2.19 1-2.67 0.253-0.13 0.52-0.2 0.789-0.21 0.146-0.01 0.304 0 0.475 0.03l0.012 0.01 0.021-0.03 12.261 2.08c-0.9 2.51-2.2 4.85-3.86 6.95-1.68 2.11-3.68 3.92-5.95 5.37l-4.759-11.5zm-5.086-6.41l-3.394 1.63-3.404-1.63-0.843-3.67 2.354-2.93h3.78l2.349 2.94-0.842 3.66zm-5.228 9.65h0.011l0.005-0.01c0.346-0.64 1.014-1.06 1.744-1.09h0.075c0.306 0 0.604 0.07 0.889 0.21 0.4 0.19 0.719 0.49 0.924 0.88l0.007 0.01h0.046l5.99 10.82c-0.764 0.26-1.562 0.48-2.377 0.67-4.427 1-9.023 0.77-13.291-0.68l5.977-10.81zm-1.841-24.27l-0.052 0.02v0.01c-0.048 1.11-0.951 1.98-2.059 1.98-0.441 0-0.861-0.14-1.214-0.4h-0.01-0.021l-10.126-7.17c3.214-3.16 7.255-5.36 11.688-6.36 0.798-0.19 1.636-0.33 2.491-0.43l-0.697 12.35zm10.655 1.56l-0.008 0.01c-0.896 0.65-2.138 0.48-2.828-0.38-0.275-0.35-0.433-0.76-0.45-1.2l-0.001-0.01h-0.01l-0.699-12.33c2.65 0.32 5.218 1.08 7.63 2.25 2.392 1.16 4.565 2.69 6.465 4.54l-10.062 7.14-0.037-0.02zm-17.789 16.63l0.021 0.02h0.011c0.128-0.02 0.255-0.04 0.38-0.04h0.025c0.953 0.02 1.766 0.68 1.979 1.61 0.099 0.43 0.059 0.86-0.114 1.27l-0.006 0.01 0.036 0.04-4.709 11.38c-2.22-1.43-4.182-3.19-5.832-5.23-1.694-2.1-3.021-4.46-3.944-7l12.153-2.06zm-0.813-10.76c0.836 0.72 0.95 1.97 0.26 2.84-0.274 0.34-0.644 0.58-1.069 0.7h-0.012l-0.01 0.04-11.853 3.42c-0.294-2.7-0.136-5.42 0.47-8.06 0.589-2.57 1.588-5.02 2.969-7.27l9.246 8.27-0.01 0.05 0.009 0.01zm-6.31 37.04c-0.146 0.22-0.296 0.43-0.439 0.62-0.293 0.4-0.568 0.78-0.827 1.27-0.06 0.11-0.129 0.27-0.196 0.41-0.038 0.08-0.075 0.16-0.107 0.23-0.609 1.3-0.154 2.82 1.014 3.38 0.302 0.15 0.622 0.21 0.943 0.21 0.934 0 1.87-0.58 2.342-1.55 0.002 0 0.004 0 0.007-0.01l0.002-0.01c0.029-0.06 0.062-0.12 0.095-0.19 0.071-0.14 0.145-0.29 0.195-0.4 0.221-0.51 0.342-0.95 0.47-1.43 0.065-0.24 0.133-0.48 0.212-0.74 0.187-0.46 0.348-0.94 0.505-1.4 0.369-1.09 0.719-2.11 1.32-2.83 0.236-0.28 0.628-0.39 1.007-0.49h0.009l0.529-0.96c5.681 2.17 11.812 2.61 17.736 1.27 1.359-0.31 2.719-0.72 4.037-1.22 0.071 0.13 0.168 0.3 0.26 0.47 0.103 0.18 0.197 0.36 0.236 0.43h0.004 0.008c0.053 0.02 0.108 0.04 0.164 0.06 0.355 0.1 0.723 0.21 1.03 0.67 0.635 1.08 1.085 2.39 1.605 3.91l0.01 0.06c0.08 0.25 0.15 0.49 0.21 0.72 0.14 0.48 0.26 0.93 0.48 1.44 0.06 0.13 0.13 0.28 0.21 0.44 0.03 0.06 0.06 0.12 0.08 0.17 0.31 0.64 0.82 1.12 1.44 1.38 0.62 0.25 1.28 0.24 1.86-0.03 1.17-0.57 1.62-2.08 1.01-3.39-0.03-0.06-0.06-0.13-0.1-0.2-0.07-0.15-0.14-0.31-0.21-0.43-0.26-0.49-0.53-0.86-0.82-1.26-0.15-0.2-0.3-0.41-0.44-0.63-0.88-1.37-1.64-2.55-2.1-3.74-0.16-0.52-0.02-0.87 0.12-1.21 0.02-0.06 0.04-0.12 0.06-0.17l0.01-0.01-0.01-0.01c-0.06-0.07-0.17-0.36-0.27-0.62-0.04-0.12-0.08-0.23-0.11-0.31 3.23-1.91 6.05-4.38 8.39-7.34 2.32-2.93 4.07-6.22 5.21-9.77 0.3 0.05 0.81 0.14 0.99 0.17h0.01c0.05-0.03 0.1-0.07 0.15-0.1 0.27-0.19 0.56-0.39 1.02-0.39h0.14c1.24 0.18 2.54 0.65 4.05 1.19l0.06 0.02c0.25 0.1 0.49 0.2 0.71 0.3 0.45 0.19 0.88 0.38 1.41 0.52 0.11 0.03 0.25 0.06 0.39 0.08 0.08 0.02 0.15 0.03 0.22 0.05 0.01 0 0.02 0 0.02 0.01 0.01 0 0.02 0 0.03 0.01h0.02 0.02c1.4 0.31 2.78-0.48 3.07-1.74s-0.62-2.56-2.02-2.9c-0.07-0.02-0.16-0.04-0.25-0.06-0.15-0.04-0.31-0.07-0.43-0.1-0.54-0.1-1.01-0.12-1.5-0.14-0.25-0.01-0.5-0.02-0.77-0.04l-0.05-0.01c-1.6-0.17-2.98-0.31-4.18-0.69-0.43-0.17-0.75-0.64-0.94-0.92-0.02-0.03-0.05-0.07-0.07-0.1l-0.95-0.28c0.51-3.67 0.34-7.37-0.49-11.01-0.85-3.67-2.33-7.11-4.42-10.22 0.13-0.11 0.3-0.27 0.46-0.42 0.16-0.14 0.3-0.26 0.37-0.32v-0.01c0.01-0.06 0.01-0.12 0.01-0.18 0.03-0.37 0.05-0.75 0.43-1.15 0.93-0.87 2.12-1.61 3.51-2.46 0.23-0.14 0.46-0.26 0.68-0.38 0.43-0.23 0.84-0.44 1.28-0.77 0.11-0.07 0.23-0.18 0.36-0.28 0.06-0.05 0.11-0.1 0.16-0.14 1.14-0.91 1.4-2.48 0.59-3.507-0.82-1.027-2.42-1.123-3.55-0.216-0.05 0.036-0.1 0.075-0.15 0.115-0.14 0.105-0.27 0.214-0.38 0.304-0.42 0.365-0.73 0.724-1.06 1.094-0.16 0.18-0.32 0.37-0.5 0.56l-0.08 0.08c-1.11 1.13-2.07 2.1-3.1 2.8-0.4 0.23-0.96 0.18-1.3 0.16-0.04 0-0.09-0.01-0.12-0.01h-0.01l-0.89 0.63c-2.56-2.68-5.56-4.863-8.9-6.486-3.375-1.641-6.971-2.64-10.684-2.972-0.021-0.307-0.047-0.859-0.054-1.037v-0.008l-0.007-0.006c-0.041-0.04-0.085-0.08-0.13-0.119-0.272-0.25-0.558-0.508-0.637-1.049-0.1-1.235 0.063-2.587 0.252-4.153l0.017-0.126c0.036-0.26 0.082-0.509 0.128-0.749 0.09-0.486 0.174-0.944 0.193-1.498 0.006-0.125 0.002-0.287-0.002-0.442 0-0.08-0.002-0.158-0.002-0.229 0-1.458-1.069-2.644-2.382-2.644-1.314 0-2.382 1.186-2.382 2.644 0 0.012 0.002 0.024 0.003 0.037 0.001 0.009 0.002 0.019 0.003 0.028-0.001 0.063-0.003 0.133-0.004 0.203-0.003 0.141-0.006 0.287-0.002 0.402 0.021 0.554 0.105 1.012 0.196 1.497 0.044 0.241 0.091 0.49 0.128 0.75l0.004 0.041c0.192 1.601 0.358 2.981 0.258 4.236-0.103 0.491-0.47 0.929-0.761 1.211l-0.006 0.005-0.056 0.99c-1.435 0.119-2.866 0.339-4.253 0.653-5.926 1.347-11.26 4.391-15.427 8.811-0.255-0.18-0.698-0.49-0.838-0.6h-0.007-0.009c-0.056 0.01-0.111 0.01-0.168 0.02-0.366 0.06-0.746 0.12-1.221-0.15-1.042-0.71-2.015-1.69-3.14-2.84l-0.041-0.04c-0.18-0.19-0.346-0.38-0.506-0.56-0.322-0.38-0.629-0.728-1.049-1.089-0.104-0.091-0.253-0.205-0.383-0.308-0.05-0.039-0.098-0.077-0.142-0.111-0.48-0.383-1.069-0.605-1.657-0.625-0.03-0.001-0.06-0.001-0.089-0.001-0.726 0-1.382 0.304-1.811 0.841-0.396 0.498-0.554 1.133-0.442 1.803 0.109 0.66 0.475 1.27 1.026 1.71 0.006 0 0.014 0.01 0.021 0.01 0.005 0.01 0.01 0.01 0.015 0.01 0.044 0.04 0.09 0.08 0.137 0.11 0.123 0.11 0.25 0.21 0.354 0.29 0.443 0.32 0.853 0.54 1.286 0.77 0.218 0.12 0.443 0.24 0.673 0.37 1.385 0.86 2.58 1.6 3.508 2.47 0.319 0.34 0.402 0.9 0.452 1.24 0.006 0.04 0.012 0.07 0.016 0.11h0.002l0.749 0.67c-4.174 6.29-5.884 13.85-4.813 21.29l-0.973 0.28h-0.007l-0.004 0.01c-0.03 0.03-0.062 0.08-0.095 0.12-0.256 0.34-0.575 0.75-0.909 0.89-1.199 0.38-2.577 0.52-4.172 0.69l-0.057 0.01c-0.267 0.02-0.523 0.03-0.772 0.04-0.491 0.02-0.955 0.04-1.495 0.14-0.128 0.02-0.289 0.06-0.444 0.1-0.065 0.02-0.129 0.04-0.187 0.05h-0.012-0.009c-0.006 0.01-0.013 0.01-0.019 0.01h-0.017c-1.398 0.34-2.302 1.64-2.014 2.9 0.288 1.27 1.665 2.05 3.071 1.74h0.016 0.021c0.009 0 0.017-0.01 0.026-0.01 0.006 0 0.013-0.01 0.019-0.01 0.059-0.01 0.121-0.02 0.185-0.04 0.151-0.03 0.307-0.06 0.428-0.1 0.537-0.14 0.967-0.32 1.423-0.52 0.223-0.09 0.454-0.19 0.697-0.29l0.071-0.02c1.504-0.54 2.803-1.01 4.04-1.19 0.463-0.03 0.949 0.25 1.241 0.42 0.038 0.02 0.073 0.04 0.105 0.06l0.006 0.01 1.019-0.18c2.299 7.11 7.131 13.15 13.606 16.99l-0.422 1.01-0.004 0.01 0.003 0.01c0.146 0.37 0.326 0.92 0.21 1.32-0.444 1.15-1.196 2.37-2.132 3.83z"/>
   <path id="Shape" fill="#336EE6" d="m26.599 202.77c-0.534-0.71-1.087-1.4-1.657-2.06-0.57-0.68-1.122-1.25-1.656-1.73 1.069-1.06 2.048-2.07 2.939-3.05 0.907-1 1.835-2.04 2.778-3.13h-4.729c-0.249 0.31-0.552 0.66-0.908 1.07-0.338 0.41-0.704 0.85-1.096 1.31-0.392 0.45-0.802 0.9-1.229 1.36-0.409 0.47-0.81 0.91-1.202 1.34v-11.76l-3.98 0.64v20.1h3.98v-6.15c0.445 0.36 0.892 0.79 1.336 1.31 0.464 0.52 0.899 1.06 1.31 1.63 0.41 0.55 0.793 1.11 1.148 1.69 0.374 0.55 0.704 1.06 0.989 1.52h4.569c-0.303-0.59-0.677-1.24-1.122-1.95-0.446-0.72-0.936-1.43-1.47-2.14"/>
   <path id="Shape" fill="#336EE6" d="m39.06 203.65c-0.249 0.04-0.534 0.07-0.855 0.11-0.321 0.02-0.623 0.02-0.908 0.02-0.927 0-1.559-0.28-1.897-0.85s-0.507-1.5-0.507-2.78v-7.35h-3.981v7.83c0 0.96 0.098 1.84 0.294 2.65 0.195 0.8 0.525 1.49 0.988 2.08 0.463 0.57 1.087 1.02 1.871 1.34 0.801 0.32 1.799 0.48 2.992 0.48 1.176 0 2.298-0.09 3.366-0.27 1.068-0.16 1.941-0.34 2.618-0.54v-13.57h-3.98v10.85h-0.001z"/>
   <path id="Shape" fill="#336EE6" d="m54.98 202.69c-0.552 0.75-1.372 1.12-2.458 1.12-0.357 0-0.687-0.01-0.989-0.03-0.303-0.03-0.552-0.07-0.748-0.1v-7.24c0.249-0.16 0.57-0.3 0.962-0.4 0.409-0.11 0.819-0.16 1.229-0.16 1.888 0 2.832 1.28 2.832 3.85 0.001 1.22-0.276 2.21-0.828 2.96m3.313-8.18c-0.517-0.64-1.157-1.13-1.924-1.47-0.766-0.35-1.646-0.53-2.645-0.53-0.553 0-1.069 0.05-1.551 0.16-0.48 0.11-0.943 0.26-1.389 0.45v-7l-3.98 0.64v19.64c0.355 0.11 0.766 0.22 1.229 0.32 0.463 0.09 0.944 0.17 1.443 0.24 0.516 0.07 1.032 0.13 1.549 0.16 0.535 0.06 1.042 0.08 1.522 0.08 1.158 0 2.191-0.17 3.101-0.5 0.908-0.36 1.674-0.86 2.298-1.5 0.623-0.64 1.095-1.42 1.416-2.32 0.338-0.91 0.507-1.93 0.507-3.05 0-1.11-0.133-2.1-0.399-2.99-0.269-0.91-0.659-1.69-1.177-2.33"/>
   <path id="Shape" fill="#336EE6" d="m66.35 198.41c0.053-0.33 0.133-0.67 0.24-0.99 0.125-0.33 0.294-0.63 0.508-0.88s0.48-0.44 0.801-0.58c0.321-0.16 0.704-0.24 1.149-0.24 0.464 0 0.847 0.08 1.148 0.24 0.321 0.16 0.579 0.36 0.775 0.61 0.214 0.25 0.365 0.53 0.454 0.85 0.106 0.32 0.17 0.65 0.187 0.99h-5.262zm2.645-5.98c-0.854 0-1.691 0.16-2.512 0.48-0.801 0.32-1.514 0.79-2.137 1.41-0.624 0.63-1.131 1.41-1.523 2.36-0.374 0.92-0.561 2.01-0.561 3.26 0 1.03 0.142 1.99 0.427 2.88 0.303 0.9 0.757 1.67 1.363 2.33 0.623 0.64 1.397 1.15 2.325 1.52 0.943 0.37 2.048 0.56 3.312 0.56 0.498 0 0.997-0.03 1.496-0.08s0.962-0.12 1.389-0.21c0.446-0.07 0.847-0.16 1.203-0.27s0.642-0.21 0.855-0.32l-0.535-3.23c-0.445 0.19-1.024 0.36-1.736 0.5-0.694 0.13-1.408 0.19-2.138 0.19-1.14 0-2.048-0.24-2.726-0.72-0.677-0.48-1.06-1.13-1.148-1.95h9.031c0.018-0.21 0.036-0.45 0.053-0.72 0.018-0.29 0.027-0.55 0.027-0.78 0-2.36-0.579-4.16-1.737-5.37-1.157-1.23-2.733-1.84-4.728-1.84z"/>
   <path id="Shape" fill="#336EE6" d="m85.988 192.67c-0.303-0.05-0.605-0.09-0.908-0.11-0.303-0.03-0.562-0.05-0.774-0.05-1.194 0-2.28 0.12-3.26 0.35-0.963 0.21-1.8 0.44-2.513 0.69v13.31h3.982v-10.74c0.178-0.06 0.436-0.1 0.773-0.14 0.357-0.05 0.66-0.08 0.909-0.08 0.553 0 1.069 0.06 1.55 0.16 0.48 0.09 0.899 0.18 1.256 0.27l0.668-3.28c-0.214-0.09-0.473-0.16-0.775-0.22-0.302-0.07-0.605-0.13-0.908-0.16"/>
   <path id="Shape" fill="#336EE6" d="m100.65 194.27c-0.46-0.57-1.093-1-1.892-1.31-0.784-0.32-1.772-0.48-2.967-0.48-1.176 0-2.299 0.09-3.366 0.27-1.068 0.16-1.941 0.34-2.618 0.53v13.58h3.98v-10.85c0.248-0.04 0.533-0.06 0.854-0.08 0.321-0.04 0.624-0.05 0.909-0.05 0.926 0 1.558 0.26 1.896 0.8 0.338 0.53 0.508 1.44 0.508 2.72v7.46h3.976v-7.94c0-0.96-0.09-1.83-0.29-2.62-0.19-0.78-0.52-1.46-0.99-2.03"/>
   <path id="Shape" fill="#336EE6" d="m108.99 198.41c0.05-0.33 0.13-0.67 0.24-0.99 0.12-0.33 0.29-0.63 0.5-0.88 0.22-0.25 0.48-0.44 0.81-0.58 0.32-0.16 0.7-0.24 1.14-0.24 0.47 0 0.85 0.08 1.15 0.24 0.32 0.16 0.58 0.36 0.77 0.61 0.22 0.25 0.37 0.53 0.46 0.85 0.1 0.32 0.17 0.65 0.19 0.99h-5.26zm2.64-5.98c-0.85 0-1.69 0.16-2.51 0.48-0.8 0.32-1.52 0.79-2.14 1.41-0.62 0.63-1.13 1.41-1.52 2.36-0.37 0.92-0.56 2.01-0.56 3.26 0 1.03 0.14 1.99 0.42 2.88 0.31 0.9 0.76 1.67 1.37 2.33 0.62 0.64 1.39 1.15 2.32 1.52 0.95 0.37 2.05 0.56 3.31 0.56 0.5 0 1-0.03 1.5-0.08s0.96-0.12 1.39-0.21c0.44-0.07 0.85-0.16 1.2-0.27 0.36-0.11 0.64-0.21 0.86-0.32l-0.54-3.23c-0.44 0.19-1.02 0.36-1.73 0.5-0.7 0.13-1.41 0.19-2.14 0.19-1.14 0-2.05-0.24-2.73-0.72s-1.06-1.13-1.15-1.95h9.03c0.02-0.21 0.04-0.45 0.06-0.72 0.02-0.29 0.02-0.55 0.02-0.78 0-2.36-0.57-4.16-1.73-5.37-1.16-1.23-2.73-1.84-4.73-1.84z"/>
   <path id="Shape" fill="#336EE6" d="m128.54 203.7c-0.44 0.07-0.88 0.11-1.31 0.11-0.89 0-1.48-0.25-1.79-0.75-0.28-0.5-0.42-1.16-0.42-2v-4.94h4.78v-3.32h-4.78v-4.14l-3.98 0.64v11.81c0 0.91 0.08 1.74 0.24 2.49 0.17 0.74 0.48 1.39 0.9 1.92 0.43 0.52 1 0.93 1.71 1.23 0.72 0.28 1.62 0.43 2.7 0.43 0.86 0 1.58-0.07 2.17-0.22 0.58-0.14 1.12-0.31 1.6-0.5l-0.56-3.1c-0.37 0.14-0.79 0.26-1.26 0.34"/>
   <path id="Shape" fill="#336EE6" d="m135.91 198.41c0.06-0.33 0.14-0.67 0.24-0.99 0.13-0.33 0.3-0.63 0.51-0.88 0.22-0.25 0.48-0.44 0.8-0.58 0.32-0.16 0.71-0.24 1.15-0.24 0.47 0 0.85 0.08 1.15 0.24 0.32 0.16 0.58 0.36 0.77 0.61 0.22 0.25 0.37 0.53 0.46 0.85 0.1 0.32 0.17 0.65 0.19 0.99h-5.27zm2.65-5.98c-0.86 0-1.69 0.16-2.51 0.48-0.81 0.32-1.52 0.79-2.14 1.41-0.63 0.63-1.13 1.41-1.52 2.36-0.38 0.92-0.57 2.01-0.57 3.26 0 1.03 0.15 1.99 0.43 2.88 0.31 0.9 0.76 1.67 1.37 2.33 0.62 0.64 1.39 1.15 2.32 1.52 0.94 0.37 2.05 0.56 3.31 0.56 0.5 0 1-0.03 1.5-0.08s0.96-0.12 1.39-0.21c0.44-0.07 0.84-0.16 1.2-0.27s0.64-0.21 0.85-0.32l-0.53-3.23c-0.44 0.19-1.02 0.36-1.74 0.5-0.69 0.13-1.4 0.19-2.14 0.19-1.14 0-2.04-0.24-2.72-0.72s-1.06-1.13-1.15-1.95h9.03c0.02-0.21 0.04-0.45 0.06-0.72 0.01-0.29 0.02-0.55 0.02-0.78 0-2.36-0.58-4.16-1.74-5.37-1.15-1.23-2.73-1.84-4.72-1.84z"/>
   <path id="Shape" fill="#336EE6" d="m157.18 200.26c-0.32-0.38-0.76-0.71-1.33-1.02-0.57-0.32-1.29-0.64-2.17-0.96-0.43-0.16-0.78-0.3-1.07-0.43-0.26-0.14-0.48-0.27-0.64-0.37-0.16-0.13-0.27-0.25-0.32-0.38-0.05-0.12-0.08-0.26-0.08-0.42 0-0.7 0.63-1.05 1.87-1.05 0.68 0 1.28 0.07 1.82 0.19 0.55 0.13 1.06 0.27 1.52 0.43l0.7-3.1c-0.47-0.18-1.09-0.34-1.88-0.48-0.78-0.16-1.6-0.24-2.45-0.24-1.71 0-3.06 0.38-4.04 1.15-0.98 0.76-1.47 1.81-1.47 3.12 0 0.68 0.1 1.26 0.3 1.74 0.19 0.48 0.47 0.9 0.82 1.26 0.36 0.33 0.79 0.63 1.29 0.88 0.51 0.25 1.08 0.49 1.71 0.72 0.8 0.3 1.39 0.58 1.79 0.83 0.39 0.23 0.58 0.51 0.58 0.83 0 0.4-0.15 0.68-0.45 0.82-0.3 0.15-0.82 0.22-1.55 0.22-0.69 0-1.4-0.07-2.11-0.22-0.71-0.16-1.41-0.37-2.08-0.64l-0.67 3.24c0.32 0.14 0.89 0.31 1.71 0.53 0.84 0.21 1.88 0.32 3.12 0.32 1.91 0 3.38-0.36 4.41-1.07 1.05-0.71 1.58-1.76 1.58-3.15 0-0.59-0.07-1.11-0.22-1.55-0.12-0.44-0.35-0.85-0.69-1.2"/>
   <path id="Shape" fill="#336BE6" d="m167.89 228.26h-162.48l0.003-182.75 162.48 0.002v182.75zm-132.66-204.62c0.325-0.885 0.794-1.657 1.408-2.314 0.612-0.657 1.358-1.18 2.235-1.564 0.876-0.385 1.876-0.579 2.998-0.579 0.737 0 1.412 0.066 2.026 0.198 0.613 0.131 1.21 0.32 1.789 0.564l-0.816 3.132c-0.368-0.142-0.771-0.264-1.21-0.369s-0.93-0.158-1.473-0.158c-1.157 0-2.021 0.36-2.591 1.079s-0.855 1.666-0.855 2.841c0 1.245 0.267 2.209 0.802 2.893 0.535 0.685 1.47 1.026 2.803 1.026 0.473 0 0.981-0.043 1.524-0.131 0.544-0.088 1.044-0.229 1.5-0.421l0.552 3.209c-0.456 0.192-1.025 0.358-1.709 0.5-0.684 0.14-1.438 0.21-2.263 0.21-1.262 0-2.35-0.189-3.262-0.566-0.912-0.376-1.661-0.889-2.249-1.538-0.587-0.648-1.018-1.416-1.288-2.302-0.273-0.885-0.408-1.845-0.408-2.88 0.001-1.003 0.163-1.945 0.487-2.83zm12.574-0.289c0.377-0.921 0.872-1.688 1.485-2.302 0.614-0.614 1.32-1.078 2.118-1.395 0.798-0.315 1.618-0.474 2.459-0.474 1.964 0 3.516 0.601 4.656 1.802 1.14 1.202 1.71 2.97 1.71 5.302 0 0.228-0.009 0.478-0.026 0.748-0.018 0.272-0.036 0.514-0.053 0.725h-8.891c0.088 0.806 0.464 1.446 1.131 1.92 0.666 0.473 1.561 0.71 2.683 0.71 0.719 0 1.425-0.066 2.118-0.197 0.692-0.132 1.258-0.294 1.696-0.486l0.525 3.183c-0.21 0.104-0.49 0.21-0.841 0.316-0.351 0.104-0.741 0.196-1.171 0.275s-0.89 0.145-1.381 0.197-0.982 0.079-1.473 0.079c-1.245 0-2.328-0.185-3.248-0.552-0.921-0.369-1.685-0.872-2.289-1.514-0.605-0.64-1.053-1.397-1.341-2.274-0.29-0.877-0.435-1.824-0.435-2.842 0.003-1.226 0.191-2.301 0.568-3.221zm15.455-3.065c0.701-0.245 1.529-0.478 2.485-0.697 0.955-0.219 2.021-0.329 3.196-0.329 0.21 0 0.464 0.013 0.763 0.04 0.299 0.026 0.596 0.062 0.895 0.104 0.298 0.044 0.596 0.098 0.894 0.158 0.298 0.062 0.554 0.136 0.764 0.224l-0.657 3.235c-0.352-0.088-0.763-0.18-1.237-0.275-0.473-0.097-0.981-0.146-1.525-0.146-0.245 0-0.539 0.022-0.882 0.066-0.342 0.044-0.601 0.092-0.775 0.145v10.574h-3.919v-13.099h-0.002zm10.968-4.182l3.919-0.632v4.078h4.709v3.262h-4.709v4.866c0 0.824 0.145 1.482 0.434 1.973 0.29 0.491 0.872 0.736 1.749 0.736 0.421 0 0.855-0.039 1.304-0.118 0.446-0.079 0.854-0.188 1.223-0.329l0.552 3.051c-0.473 0.193-1 0.36-1.578 0.5-0.579 0.141-1.289 0.211-2.131 0.211-1.069 0-1.955-0.145-2.655-0.434-0.702-0.29-1.264-0.692-1.685-1.211-0.421-0.517-0.715-1.144-0.881-1.88-0.167-0.737-0.25-1.552-0.25-2.447v-11.626h-0.001zm15.729 17.282h-3.919v-13.836h3.919v13.836zm-3.615-19.531c0.464-0.412 1.012-0.618 1.644-0.618 0.631 0 1.179 0.206 1.645 0.618 0.464 0.412 0.696 0.979 0.696 1.696 0 0.72-0.232 1.285-0.696 1.697-0.466 0.412-1.014 0.617-1.645 0.617-0.632 0-1.18-0.205-1.644-0.617-0.465-0.412-0.697-0.978-0.697-1.697-0.001-0.718 0.232-1.284 0.697-1.696zm7.299 4.958c0-1.789 0.504-3.209 1.512-4.261 1.009-1.052 2.502-1.578 4.484-1.578 0.733 0 1.343 0.062 1.823 0.184 0.49 0.123 0.9 0.255 1.23 0.396l-0.69 3.078c-0.28-0.123-0.59-0.21-0.93-0.263-0.34-0.054-0.69-0.079-1.04-0.079-0.473 0-0.872 0.065-1.195 0.196-0.325 0.133-0.579 0.312-0.764 0.539-0.184 0.229-0.315 0.5-0.396 0.816-0.077 0.315-0.118 0.658-0.118 1.026v0.684h4.843v3.262h-4.843v10.574h-3.918l0.002-14.574zm14.939 14.573h-3.92v-13.836h3.92v13.836zm-3.62-19.531c0.47-0.412 1.02-0.618 1.65-0.618s1.18 0.206 1.65 0.618c0.46 0.412 0.69 0.979 0.69 1.696 0 0.72-0.23 1.285-0.69 1.697-0.47 0.412-1.02 0.617-1.65 0.617s-1.18-0.205-1.65-0.617c-0.46-0.412-0.69-0.978-0.69-1.697 0-0.718 0.23-1.284 0.69-1.696zm6.81 9.496c0.38-0.921 0.87-1.688 1.49-2.302 0.61-0.614 1.32-1.078 2.11-1.395 0.8-0.315 1.62-0.474 2.46-0.474 1.97 0 3.52 0.601 4.66 1.802 1.14 1.202 1.71 2.97 1.71 5.302 0 0.228-0.01 0.478-0.03 0.748-0.02 0.272-0.03 0.514-0.05 0.725h-8.89c0.08 0.806 0.46 1.446 1.13 1.92 0.66 0.473 1.56 0.71 2.68 0.71 0.72 0 1.43-0.066 2.12-0.197 0.69-0.132 1.26-0.294 1.7-0.486l0.52 3.183c-0.21 0.104-0.49 0.21-0.84 0.316-0.35 0.104-0.74 0.196-1.17 0.275s-0.89 0.145-1.38 0.197-0.98 0.079-1.48 0.079c-1.24 0-2.32-0.185-3.25-0.552-0.92-0.369-1.68-0.872-2.28-1.514-0.61-0.64-1.06-1.397-1.34-2.274-0.3-0.877-0.44-1.824-0.44-2.842 0-1.226 0.2-2.301 0.57-3.221zm15.02 0.157c0.28-0.903 0.68-1.671 1.21-2.302 0.52-0.631 1.17-1.114 1.93-1.447 0.77-0.333 1.64-0.5 2.62-0.5 0.54 0 1.03 0.053 1.46 0.158 0.43 0.104 0.86 0.255 1.3 0.446v-6.26l3.92-0.631v19.965c-0.35 0.105-0.75 0.206-1.21 0.302-0.45 0.098-0.93 0.181-1.43 0.25-0.5 0.07-1.01 0.128-1.53 0.172-0.51 0.044-1.01 0.065-1.48 0.065-1.14 0-2.16-0.167-3.06-0.5-0.89-0.333-1.64-0.811-2.26-1.434-0.61-0.622-1.08-1.376-1.4-2.263-0.33-0.885-0.49-1.881-0.49-2.984 0-1.121 0.14-2.133 0.42-3.037zm46.18 19.679v-15.482c0-15.043-12.3-27.351-27.35-27.351h-117.3c-15.037 0-27.345 12.308-27.345 27.351v15.482 2.326 187.2h172.02v-189.52l-0.03-0.004z"/>
   <path id="Shape" fill="#336BE6" d="m120.24 24.099c-0.1-0.315-0.24-0.596-0.44-0.842-0.21-0.245-0.46-0.447-0.77-0.605-0.31-0.157-0.69-0.236-1.14-0.236-0.44 0-0.82 0.074-1.13 0.224-0.32 0.15-0.58 0.346-0.79 0.592s-0.38 0.53-0.49 0.855c-0.11 0.324-0.2 0.652-0.25 0.985h5.18c-0.02-0.333-0.07-0.658-0.17-0.973"/>
   <path id="Shape" fill="#336BE6" d="m133.6 30.386c0.35 0 0.68-0.013 0.98-0.039 0.29-0.027 0.54-0.057 0.73-0.092v-7.129c-0.24-0.158-0.56-0.289-0.96-0.396-0.39-0.104-0.79-0.156-1.19-0.156-1.86 0-2.79 1.262-2.79 3.787 0 1.21 0.27 2.184 0.81 2.919 0.54 0.738 1.35 1.106 2.42 1.106"/>
   <path id="Shape" fill="#336BE6" d="m56.275 24.099c-0.097-0.315-0.246-0.596-0.447-0.842-0.202-0.245-0.457-0.447-0.763-0.605-0.308-0.157-0.688-0.236-1.145-0.236-0.438 0-0.815 0.074-1.131 0.224s-0.579 0.346-0.79 0.592c-0.21 0.246-0.372 0.53-0.485 0.855-0.114 0.324-0.197 0.652-0.25 0.985h5.182c-0.018-0.333-0.075-0.658-0.171-0.973"/>
   <path id="Shape" fill="#fff" d="m36.441 31.648c0.587 0.649 1.337 1.162 2.249 1.539s1.999 0.565 3.262 0.565c0.824 0 1.578-0.07 2.262-0.21 0.685-0.142 1.254-0.308 1.71-0.5l-0.553-3.209c-0.456 0.192-0.956 0.333-1.499 0.421-0.544 0.088-1.052 0.131-1.525 0.131-1.332 0-2.267-0.341-2.802-1.025s-0.802-1.648-0.802-2.894c0-1.175 0.284-2.121 0.855-2.841 0.568-0.72 1.433-1.078 2.591-1.078 0.543 0 1.034 0.052 1.473 0.158 0.438 0.104 0.841 0.228 1.21 0.367l0.815-3.13c-0.579-0.246-1.175-0.434-1.789-0.565s-1.289-0.197-2.025-0.197c-1.122 0-2.122 0.193-2.999 0.579-0.877 0.385-1.622 0.907-2.235 1.564-0.614 0.657-1.083 1.43-1.407 2.314-0.325 0.886-0.486 1.829-0.486 2.828 0 1.035 0.135 1.995 0.407 2.88 0.271 0.887 0.701 1.655 1.288 2.303"/>
   <path id="Shape" fill="#fff" d="m51.514 24.085c0.113-0.324 0.275-0.609 0.485-0.855 0.211-0.245 0.475-0.442 0.79-0.592s0.692-0.223 1.131-0.223c0.456 0 0.837 0.079 1.145 0.235 0.307 0.158 0.561 0.36 0.763 0.606 0.201 0.245 0.351 0.526 0.447 0.841 0.096 0.316 0.153 0.641 0.171 0.974h-5.182c0.053-0.331 0.136-0.66 0.25-0.986m-2.499 7.603c0.604 0.641 1.367 1.145 2.288 1.514 0.921 0.367 2.004 0.552 3.249 0.552 0.49 0 0.981-0.026 1.473-0.079s0.951-0.118 1.381-0.197 0.82-0.171 1.171-0.275c0.351-0.106 0.631-0.212 0.841-0.316l-0.525-3.183c-0.438 0.192-1.004 0.354-1.696 0.486-0.693 0.131-1.399 0.197-2.118 0.197-1.122 0-2.017-0.237-2.683-0.71-0.667-0.474-1.043-1.114-1.131-1.92h8.891c0.017-0.211 0.035-0.452 0.053-0.724s0.026-0.521 0.026-0.75c0-2.332-0.57-4.099-1.71-5.301-1.141-1.201-2.692-1.802-4.656-1.802-0.842 0-1.662 0.158-2.459 0.474-0.799 0.315-1.504 0.78-2.118 1.395s-1.108 1.381-1.485 2.302c-0.378 0.92-0.565 1.995-0.565 3.222 0 1.018 0.144 1.965 0.433 2.842 0.288 0.875 0.735 1.633 1.34 2.273"/>
   <path id="Shape" fill="#fff" d="m67.178 22.81c0.175-0.053 0.434-0.101 0.775-0.145 0.343-0.043 0.636-0.066 0.882-0.066 0.544 0 1.052 0.049 1.525 0.146s0.885 0.188 1.236 0.275l0.658-3.234c-0.211-0.088-0.466-0.162-0.764-0.225-0.298-0.061-0.596-0.114-0.895-0.158-0.298-0.043-0.596-0.077-0.895-0.104-0.298-0.026-0.552-0.039-0.763-0.039-1.175 0-2.24 0.11-3.196 0.329s-1.783 0.451-2.484 0.697v13.099h3.919v-10.575h0.002z"/>
   <path id="Shape" fill="#fff" d="m75.359 32.056c0.421 0.517 0.982 0.921 1.685 1.21 0.7 0.289 1.586 0.435 2.655 0.435 0.843 0 1.553-0.07 2.131-0.211s1.105-0.307 1.578-0.5l-0.552-3.051c-0.369 0.141-0.776 0.249-1.223 0.328-0.448 0.079-0.882 0.119-1.304 0.119-0.877 0-1.459-0.246-1.749-0.737-0.288-0.49-0.434-1.147-0.434-1.973v-4.866h4.709v-3.262h-4.709v-4.077l-3.919 0.631v11.627c0 0.895 0.083 1.71 0.25 2.446 0.167 0.737 0.461 1.364 0.882 1.881"/>
   <rect id="Rectangle-path" height="13.836" width="3.919" y="19.548" x="86.038" fill="#fff"/>
   <path id="Shape" fill="#fff" d="m87.985 17.865c0.631 0 1.179-0.205 1.645-0.617 0.464-0.412 0.696-0.978 0.696-1.697s-0.232-1.284-0.696-1.696c-0.466-0.412-1.014-0.619-1.645-0.619-0.632 0-1.18 0.207-1.644 0.619-0.466 0.412-0.697 0.978-0.697 1.696 0 0.72 0.231 1.285 0.697 1.697 0.464 0.411 1.012 0.617 1.644 0.617"/>
   <path id="Shape" fill="#fff" d="m97.559 22.81h4.841v-3.262h-4.841v-0.685c0-0.367 0.041-0.71 0.119-1.025s0.211-0.587 0.395-0.815c0.185-0.228 0.438-0.408 0.764-0.539 0.323-0.132 0.724-0.197 1.193-0.197 0.35 0 0.7 0.026 1.04 0.078 0.34 0.054 0.65 0.142 0.94 0.264l0.68-3.077c-0.33-0.14-0.74-0.271-1.22-0.396-0.49-0.121-1.09-0.184-1.831-0.184-1.981 0-3.478 0.526-4.484 1.578-1.008 1.052-1.512 2.473-1.512 4.262v14.572h3.918l-0.002-10.574z"/>
   <path id="Shape" fill="#fff" d="m106.61 17.865c0.63 0 1.18-0.205 1.64-0.617 0.47-0.412 0.7-0.978 0.7-1.697s-0.23-1.284-0.7-1.696c-0.46-0.412-1.01-0.619-1.64-0.619s-1.18 0.207-1.65 0.619c-0.46 0.412-0.69 0.978-0.69 1.696 0 0.72 0.23 1.285 0.69 1.697 0.47 0.411 1.02 0.617 1.65 0.617"/>
   <rect id="Rectangle-path" height="13.836" width="3.919" y="19.548" x="104.66" fill="#fff"/>
   <path id="Shape" fill="#fff" d="m115.48 24.085c0.11-0.324 0.28-0.609 0.49-0.855 0.21-0.245 0.47-0.442 0.79-0.592 0.31-0.149 0.69-0.223 1.13-0.223 0.45 0 0.83 0.079 1.14 0.235 0.31 0.158 0.56 0.36 0.77 0.606 0.2 0.245 0.34 0.526 0.44 0.841 0.1 0.316 0.15 0.641 0.17 0.974h-5.18c0.05-0.331 0.14-0.66 0.25-0.986m-2.5 7.603c0.6 0.641 1.37 1.145 2.29 1.514 0.92 0.367 2 0.552 3.25 0.552 0.49 0 0.98-0.026 1.47-0.079s0.95-0.118 1.38-0.197 0.82-0.171 1.17-0.275c0.35-0.106 0.64-0.212 0.84-0.316l-0.52-3.183c-0.44 0.192-1 0.354-1.7 0.486-0.69 0.131-1.39 0.197-2.11 0.197-1.13 0-2.02-0.237-2.69-0.71-0.66-0.474-1.04-1.114-1.13-1.92h8.89c0.02-0.211 0.04-0.452 0.06-0.724 0.02-0.271 0.02-0.521 0.02-0.75 0-2.332-0.57-4.099-1.71-5.301-1.14-1.201-2.69-1.802-4.65-1.802-0.85 0-1.66 0.158-2.46 0.474-0.8 0.315-1.51 0.78-2.12 1.395-0.61 0.614-1.11 1.381-1.48 2.302-0.38 0.92-0.57 1.995-0.57 3.222 0 1.018 0.15 1.965 0.44 2.842 0.28 0.875 0.73 1.633 1.33 2.273"/>
   <path id="Shape" fill="#fff" d="m133.15 22.573c0.41 0 0.81 0.054 1.2 0.158 0.39 0.105 0.71 0.237 0.96 0.396v7.128c-0.19 0.036-0.44 0.065-0.74 0.092-0.29 0.027-0.62 0.04-0.97 0.04-1.07 0-1.88-0.369-2.42-1.105s-0.82-1.71-0.82-2.92c0-2.526 0.94-3.789 2.79-3.789m-4.89 9.22c0.62 0.623 1.37 1.101 2.26 1.434 0.9 0.333 1.92 0.499 3.06 0.499 0.47 0 0.96-0.021 1.48-0.064 0.52-0.044 1.03-0.102 1.53-0.172s0.97-0.153 1.43-0.25c0.46-0.096 0.86-0.197 1.21-0.303v-19.965l-3.92 0.632v6.26c-0.44-0.192-0.87-0.342-1.3-0.446-0.43-0.105-0.92-0.158-1.46-0.158-0.98 0-1.85 0.167-2.62 0.5-0.76 0.333-1.41 0.814-1.93 1.446-0.53 0.632-0.93 1.398-1.21 2.302s-0.42 1.916-0.42 3.038c0 1.104 0.16 2.101 0.48 2.985 0.33 0.886 0.8 1.64 1.41 2.262"/>
  </g>
 </g>
</svg>
